<svg width="56" height="56" viewBox="0 0 56 56" fill="none" xmlns="http://www.w3.org/2000/svg">
<path d="M44.3333 0H11.6667C8.57361 0.003705 5.6083 1.23406 3.42118 3.42118C1.23406 5.6083 0.003705 8.57361 0 11.6667V44.3333C0.003705 47.4264 1.23406 50.3917 3.42118 52.5788C5.6083 54.7659 8.57361 55.9963 11.6667 56H44.3333C47.4264 55.9963 50.3917 54.7659 52.5788 52.5788C54.7659 50.3917 55.9963 47.4264 56 44.3333V11.6667C55.9963 8.57361 54.7659 5.6083 52.5788 3.42118C50.3917 1.23406 47.4264 0.003705 44.3333 0ZM51.3333 44.3333C51.3333 46.1898 50.5958 47.9703 49.2831 49.2831C47.9703 50.5958 46.1898 51.3333 44.3333 51.3333H11.6667C9.81015 51.3333 8.02967 50.5958 6.71692 49.2831C5.40416 47.9703 4.66667 46.1898 4.66667 44.3333V11.6667C4.66667 9.81015 5.40416 8.02967 6.71692 6.71692C8.02967 5.40416 9.81015 4.66667 11.6667 4.66667H44.3333C46.1898 4.66667 47.9703 5.40416 49.2831 6.71692C50.5958 8.02967 51.3333 9.81015 51.3333 11.6667V44.3333Z" fill="#00BA2C"/>
<path d="M21.7766 37.1444L12.6322 28.0001C12.1947 27.5627 11.6013 27.3169 10.9826 27.3169C10.3639 27.3169 9.77047 27.5627 9.33291 28.0001C8.89548 28.4377 8.64974 29.0311 8.64974 29.6498C8.64974 30.2685 8.89548 30.8619 9.33291 31.2994L18.4772 40.4438C18.9106 40.8773 19.4251 41.2212 19.9914 41.4559C20.5578 41.6905 21.1647 41.8113 21.7777 41.8113C22.3907 41.8113 22.9977 41.6905 23.564 41.4559C24.1303 41.2212 24.6449 40.8773 25.0782 40.4438L46.6662 18.8558C47.1037 18.4182 47.3494 17.8248 47.3494 17.2061C47.3494 16.5874 47.1037 15.994 46.6662 15.5565C46.2287 15.119 45.6353 14.8733 45.0166 14.8733C44.3979 14.8733 43.8045 15.119 43.3669 15.5565L21.7766 37.1444Z" fill="#00BA2C"/>
</svg>
