<svg width="320" height="80" viewBox="0 0 320 80" fill="none" xmlns="http://www.w3.org/2000/svg">
<path d="M40.0813 80C62.2176 80 80.1626 62.0914 80.1626 40C80.1626 17.9086 62.2176 0 40.0813 0C17.945 0 0 17.9086 0 40C0 62.0914 17.945 80 40.0813 80Z" fill="url(#paint0_linear_3215_39166)"/>
<path d="M49.3807 36.4597C59.6549 35.3178 69.247 30.7648 76.618 23.5313C74.9382 19.8325 72.7042 16.4102 69.9927 13.3821C66.7882 17.0078 62.8486 19.9129 58.4346 21.905C54.0206 23.897 49.2329 24.9306 44.3885 24.9373C38.5341 24.9555 32.7742 23.4644 27.6669 20.6084C22.5595 17.7524 18.2779 13.6283 15.2369 8.63582V8.61791C12.0445 11.1358 9.25301 14.1219 6.95739 17.4746C12.2229 24.8474 19.5541 30.5031 28.03 33.7313C22.9272 37.733 18.7288 42.7651 15.7098 48.4983C12.6908 54.2314 10.9191 60.5362 10.5109 67C13.9936 70.8003 18.1764 73.8964 22.8314 76.1194L22.8074 75.9851C19.4903 57.9552 31.407 40.2298 49.3807 36.4597Z" fill="white"/>
<path d="M100.203 62.4237V17.6089H117.634C120.852 17.5801 124.053 18.0755 127.111 19.0756C129.89 19.9801 132.452 21.4444 134.64 23.3778C136.793 25.3237 138.489 27.7193 139.608 30.3941C140.813 33.1852 141.416 36.3812 141.416 39.9822C141.454 43.0983 140.929 46.1959 139.866 49.1259C138.887 51.7973 137.324 54.2174 135.291 56.2104C133.169 58.2443 130.639 59.8057 127.868 60.7911C124.941 61.8795 121.576 62.4237 117.774 62.4237H100.203ZM108.46 55.3393H117.506C119.779 55.3774 122.042 55.0257 124.196 54.2993C126.037 53.6742 127.717 52.6502 129.115 51.3007C130.469 49.9544 131.499 48.3194 132.129 46.5185C132.841 44.458 133.188 42.2891 133.153 40.1096C133.184 37.9767 132.866 35.853 132.212 33.8222C131.617 32.0072 130.624 30.3472 129.305 28.963C127.927 27.5619 126.252 26.4858 124.403 25.8133C122.191 25.0253 119.852 24.6458 117.503 24.6933H108.46V55.3393Z" fill="white"/>
<path d="M150.026 62.4237V17.6089H158.247V62.4237H150.026Z" fill="white"/>
<path d="M168.68 62.4237V17.6089H176.901V55.3393H197.173V62.4237H168.68Z" fill="white"/>
<path d="M204.702 62.4237V17.6089H212.924V62.4237H204.702Z" fill="white"/>
<path d="M264.035 62.4237H255.318L251.785 53.8874H231.079L227.546 62.4237H218.868L237.554 17.5763H245.348L264.035 62.4237ZM241.417 28.3852L241.153 29.5378L233.989 46.8385H248.848L241.723 29.5378L241.461 28.3852H241.417Z" fill="white"/>
<path d="M289.096 47.7926H278.265V62.4237H270.044V17.6089H288.974C291.106 17.5885 293.222 17.9747 295.209 18.7467C297.045 19.4622 298.722 20.5314 300.143 21.8933C301.543 23.2509 302.645 24.8833 303.38 26.6874C304.163 28.6068 304.555 30.6625 304.535 32.7348C304.558 34.8105 304.172 36.8705 303.397 38.797C302.671 40.5932 301.58 42.2202 300.194 43.5763C298.788 44.9345 297.12 45.9939 295.292 46.6904C293.314 47.4397 291.212 47.8135 289.096 47.7926ZM278.265 40.7081H288.656C289.673 40.7166 290.68 40.5178 291.617 40.124C292.554 39.7301 293.401 39.1495 294.105 38.4178C294.799 37.6872 295.348 36.8315 295.723 35.8963C296.125 34.9025 296.327 33.8392 296.316 32.7674C296.325 31.69 296.123 30.6212 295.723 29.6207C295.346 28.6734 294.792 27.8065 294.09 27.0667C293.393 26.3399 292.564 25.7526 291.646 25.3363C290.697 24.9062 289.666 24.6868 288.624 24.6933H278.265V40.7081Z" fill="white"/>
<path d="M311.779 62.4237V17.6089H320V62.4237H311.779Z" fill="white"/>
<defs>
<linearGradient id="paint0_linear_3215_39166" x1="46.8657" y1="11.7164" x2="73.4855" y2="118.196" gradientUnits="userSpaceOnUse">
<stop stop-color="#00BA2C"/>
<stop offset="1" stop-color="#02821D"/>
</linearGradient>
</defs>
</svg>
