<svg width="320" height="80" viewBox="0 0 320 80" fill="none" xmlns="http://www.w3.org/2000/svg">
<path d="M40 80C62.0914 80 80 62.0914 80 40C80 17.9086 62.0914 0 40 0C17.9086 0 0 17.9086 0 40C0 62.0914 17.9086 80 40 80Z" fill="url(#paint0_linear_3791_707)"/>
<path d="M49.2806 36.4597C59.534 35.3178 69.1066 30.7648 76.4627 23.5313C74.7862 19.8325 72.5568 16.4102 69.8507 13.3821C66.6528 17.0078 62.7211 19.9129 58.3161 21.905C53.911 23.897 49.133 24.9306 44.2985 24.9373C38.4559 24.9555 32.7077 23.4644 27.6108 20.6084C22.5138 17.7524 18.2409 13.6283 15.206 8.63582V8.61791C12.0201 11.1358 9.23424 14.1219 6.94328 17.4746C12.1982 24.8474 19.5144 30.5031 27.9731 33.7313C22.8807 37.733 18.6909 42.7651 15.678 48.4983C12.665 54.2314 10.897 60.5362 10.4896 67C13.9652 70.8003 18.1396 73.8964 22.7851 76.1194L22.7612 75.9851C19.4507 57.9552 31.3433 40.2298 49.2806 36.4597Z" fill="white"/>
<path d="M100 62.4237V17.6089H117.396C120.607 17.5801 123.802 18.0755 126.853 19.0756C129.626 19.9801 132.184 21.4444 134.367 23.3778C136.515 25.3237 138.208 27.7193 139.324 30.3941C140.527 33.1852 141.129 36.3812 141.129 39.9822C141.168 43.0984 140.644 46.1959 139.582 49.1259C138.605 51.7973 137.046 54.2174 135.016 56.2104C132.899 58.2443 130.374 59.8057 127.609 60.7911C124.687 61.8795 121.329 62.4237 117.535 62.4237H100ZM108.24 55.3393H117.268C119.536 55.3774 121.794 55.0257 123.944 54.2993C125.781 53.6742 127.458 52.6502 128.853 51.3007C130.204 49.9544 131.233 48.3194 131.861 46.5185C132.572 44.458 132.918 42.2891 132.883 40.1096C132.914 37.9767 132.597 35.853 131.944 33.8222C131.35 32.0072 130.359 30.3472 129.043 28.963C127.667 27.5619 125.996 26.4858 124.151 25.8133C121.943 25.0253 119.609 24.6458 117.265 24.6933H108.24V55.3393Z" fill="white"/>
<path d="M149.721 62.4237V17.6089H157.926V62.4237H149.721Z" fill="white"/>
<path d="M168.338 62.4237V17.6089H176.542V55.3393H196.773V62.4237H168.338Z" fill="white"/>
<path d="M204.287 62.4237V17.6089H212.492V62.4237H204.287Z" fill="white"/>
<path d="M263.499 62.4237H254.8L251.274 53.8874H230.61L227.084 62.4237H218.424L237.073 17.5763H244.85L263.499 62.4237ZM240.927 28.3852L240.664 29.5378L233.514 46.8385H248.344L241.233 29.5378L240.972 28.3852H240.927Z" fill="white"/>
<path d="M288.51 47.7926H277.701V62.4237H269.496V17.6089H288.388C290.516 17.5885 292.628 17.9747 294.61 18.7467C296.442 19.4622 298.116 20.5314 299.535 21.8933C300.931 23.2509 302.031 24.8833 302.764 26.6874C303.546 28.6068 303.938 30.6625 303.917 32.7348C303.941 34.8105 303.555 36.8705 302.782 38.797C302.057 40.5932 300.968 42.2203 299.585 43.5763C298.182 44.9345 296.518 45.9939 294.693 46.6904C292.719 47.4397 290.622 47.8135 288.51 47.7926ZM277.701 40.7081H288.071C289.086 40.7166 290.091 40.5178 291.026 40.124C291.961 39.7301 292.806 39.1495 293.508 38.4178C294.201 37.6872 294.749 36.8315 295.123 35.8963C295.524 34.9025 295.726 33.8392 295.716 32.7674C295.724 31.69 295.523 30.6212 295.123 29.6207C294.747 28.6734 294.194 27.8065 293.493 27.0667C292.798 26.3399 291.97 25.7526 291.055 25.3363C290.108 24.9062 289.079 24.6868 288.039 24.6933H277.701V40.7081Z" fill="white"/>
<path d="M311.147 62.4237V17.6089H319.351V62.4237H311.147Z" fill="white"/>
<defs>
<linearGradient id="paint0_linear_3791_707" x1="46.7706" y1="11.7164" x2="73.4382" y2="118.17" gradientUnits="userSpaceOnUse">
<stop stop-color="#00BA2C"/>
<stop offset="1" stop-color="#02821D"/>
</linearGradient>
</defs>
</svg>
